<?xml version="1.0" encoding="utf-8"?>
<!-- Generator: Adobe Illustrator 21.1.0, SVG Export Plug-In . SVG Version: 6.00 Build 0)  -->
<svg version="1.1" id="Layer_1" xmlns="http://www.w3.org/2000/svg" xmlns:xlink="http://www.w3.org/1999/xlink" x="0px" y="0px"
	 viewBox="0 0 360 360" style="enable-background:new 0 0 360 360;" xml:space="preserve">
<style type="text/css">
	.st0{clip-path:url(#SVGID_2_);fill:#FABD17;}
</style>
<g>
	<defs>
		<rect id="SVGID_1_" x="19" y="17.4" width="325" height="325"/>
	</defs>
	<clipPath id="SVGID_2_">
		<use xlink:href="#SVGID_1_"  style="overflow:visible;"/>
	</clipPath>
	<path class="st0" d="M253.1,239.5h-29.5v-52.4c0-13.6-4.8-20.5-14.5-20.5c-7.6,0-12.6,3.8-15,11.4c-0.8,1.2-1.2,3.6-1.2,7.2v54.2
		h-29.5v-63.8c0-14.5-0.2-24.5-0.6-30.1h25.3l1.8,12.6c6.6-10,16.2-15,29.5-15c10,0,18.2,3.5,24.4,10.5c6.3,7,9.4,17.2,9.4,30.4
		L253.1,239.5L253.1,239.5z M131.5,133.5c-10.4,0-15.6-4.8-15.6-14.5c0-4,1.5-7.4,4.5-10.2c3-2.8,6.7-4.2,11.1-4.2
		c10.4,0,15.6,4.8,15.6,14.5C147.2,128.7,142,133.5,131.5,133.5 M146,239.5h-28.9v-93.9H146V239.5z"/>
	<path class="st0" d="M181.5,53.5c-69.7,0-126.4,56.7-126.4,126.4s56.7,126.4,126.4,126.4s126.4-56.7,126.4-126.4
		S251.2,53.5,181.5,53.5 M181.5,342.4C91.9,342.4,19,269.5,19,179.9C19,90.3,91.9,17.4,181.5,17.4S344,90.3,344,179.9
		C344,269.5,271.1,342.4,181.5,342.4"/>
</g>
</svg>
