<?xml version="1.0" encoding="utf-8"?>
<!-- Generator: Adobe Illustrator 21.1.0, SVG Export Plug-In . SVG Version: 6.00 Build 0)  -->
<svg version="1.1" id="Layer_1" xmlns="http://www.w3.org/2000/svg" xmlns:xlink="http://www.w3.org/1999/xlink" x="0px" y="0px"
	 viewBox="0 0 360 360" style="enable-background:new 0 0 360 360;" xml:space="preserve">
<style type="text/css">
	.st0{clip-path:url(#SVGID_2_);fill:#FABD17;}
	.st1{fill:#FABD17;}
</style>
<g>
	<defs>
		<rect id="SVGID_1_" x="19" y="17.4" width="325" height="325"/>
	</defs>
	<clipPath id="SVGID_2_">
		<use xlink:href="#SVGID_1_"  style="overflow:visible;"/>
	</clipPath>
	<path class="st0" d="M181.5,53.5c-69.7,0-126.4,56.7-126.4,126.4s56.7,126.4,126.4,126.4s126.4-56.7,126.4-126.4
		S251.2,53.5,181.5,53.5 M181.5,342.4C91.9,342.4,19,269.5,19,179.9C19,90.3,91.9,17.4,181.5,17.4S344,90.3,344,179.9
		C344,269.5,271.1,342.4,181.5,342.4"/>
</g>
<g>
	<path class="st1" d="M209.5,89.1h-98.2v181.7h142.3V133.3L209.5,89.1z M211.3,99.5l32.1,32.1h-32.1V99.5z M117.4,264.8V95.2h87.8
		v42.4h42.4v127.2H117.4z"/>
	<path class="st1" d="M196.1,201.2c1.7,0,3-1.4,3-3c0-1.7-1.4-3-3-3h-51.5c-1.7,0-3,1.4-3,3c0,1.7,1.4,3,3,3H196.1z"/>
	<path class="st1" d="M226.4,180h-21.2c-1.7,0-3,1.4-3,3c0,1.7,1.4,3,3,3h21.2c1.7,0,3-1.4,3-3C229.4,181.4,228.1,180,226.4,180z"/>
	<path class="st1" d="M156.8,183c0,1.7,1.4,3,3,3h30.3c1.7,0,3-1.4,3-3c0-1.7-1.4-3-3-3h-30.3C158.1,180,156.8,181.4,156.8,183z"/>
	<path class="st1" d="M142.5,180.9c-0.5,0.6-0.9,1.4-0.9,2.2c0,0.8,0.3,1.6,0.9,2.1c0.5,0.6,1.3,0.9,2.2,0.9c0.8,0,1.6-0.3,2.2-0.9
		c0.5-0.6,0.9-1.4,0.9-2.2c0-0.8-0.3-1.6-0.9-2.2C145.7,179.8,143.6,179.8,142.5,180.9z"/>
	<path class="st1" d="M209.1,196c-0.5,0.6-0.9,1.3-0.9,2.2c0,0.8,0.3,1.6,0.9,2.2c0.6,0.5,1.4,0.9,2.2,0.9s1.6-0.3,2.2-0.9
		c0.6-0.6,0.9-1.3,0.9-2.2c0-0.8-0.3-1.6-0.9-2.2C212.3,194.9,210.3,194.9,209.1,196z"/>
	<path class="st1" d="M224.3,196c-0.5,0.6-0.9,1.3-0.9,2.2c0,0.8,0.3,1.6,0.9,2.2c0.6,0.5,1.4,0.9,2.2,0.9c0.8,0,1.6-0.3,2.2-0.9
		s0.9-1.3,0.9-2.1c0-0.8-0.3-1.6-0.9-2.2C227.4,194.9,225.4,194.9,224.3,196z"/>
	<path class="st1" d="M161.4,210.8c-6.6,3.5-8.9,10.1-9.7,16.9c-1.3-1.1-2.5-2.1-3.8-3.1c-3-2.5-7.3,1.8-4.3,4.3
		c2.8,2.4,5.7,4.7,8.5,7.1c2,1.7,5.1,0.6,5.2-2.1c0.2-6.6,0.5-14.4,7.1-17.8C167.9,214.2,164.8,209,161.4,210.8z"/>
	<path class="st1" d="M202,222.7c-4.4-0.3-10.9,6.5-14.3,0.5c-0.8-1.4-2.8-1.9-4.1-1.1c-4.3,2.6-9.9,6.4-14.4,1.5
		c-2.6-2.9-6.9,1.4-4.3,4.3c5.7,6.2,13,4.3,19.4,0.8c1.4,1.6,3.2,2.8,5.6,3.3c2.4,0.5,12.2-3.5,12.7-2.7c2.3,3.1,7.5,0.1,5.2-3.1
		C206.3,224,204.8,222.9,202,222.7z"/>
	<path class="st1" d="M178.5,161.7l2-1.5l-1-2.3c-0.9-2.1-2.5-3.7-4.4-4.6l-6.4-3.3c3-1.9,5.1-4.7,6.3-8.5c2.1-1.3,3.4-3.5,3.4-6v-2
		c0-2.1-0.9-4-2.4-5.3c-1.1-5.7-5-12-16.8-12c-0.5,0-0.9,0-1.4,0.1c-1.6,0.1-3.9,0-5.9-1.3c-0.9-0.6-1.4-1.1-1.6-1.4
		c-1-1.2-2.6-1.6-4-1.1c-1.4,0.6-2.3,2-2.1,3.6c0.1,0.8,0.2,1.7,0.4,2.7c0.3,1.3,0.3,1.6,0.3,1.7c0,0.1-0.2,0.5-0.3,0.8
		c-0.2,0.5-0.5,1-0.8,1.8c-0.7,1.6-1.1,3.3-1.4,5.2c-1.5,1.3-2.4,3.2-2.4,5.2v2c0,2.5,1.3,4.7,3.4,6c1.3,3.7,3.4,6.6,6.3,8.5
		l-6.7,3.3c-1.9,1-3.3,2.6-4.2,4.7l-1,2.2l2,1.4c5.7,4.1,12.4,6.2,19.3,6.2C166.1,167.9,172.8,165.8,178.5,161.7z M146.2,158.5
		l7.4-3.6c1.6-0.8,2.6-2.4,2.6-4.1v-4.3l-1.8-0.8c-2.8-1.2-4.6-3.5-5.5-7l-0.4-1.6l-1.6-0.5c-0.4-0.1-0.7-0.5-0.7-0.9v-2
		c0-0.4,0.3-0.7,0.6-0.9l1.4-0.8l0.2-1.6c0.2-1.8,0.6-3.5,1.2-4.9c0.3-0.6,0.5-1.1,0.7-1.5c0.5-1,0.8-1.8,0.9-2.6
		c2.2,0.9,4.7,1.3,7.4,1.1c0.3,0,0.6,0,0.9,0c8.8,0,10.5,4,11,8l0.2,1.6l1.4,0.7c0.3,0.1,0.6,0.4,0.6,0.9v2c0,0.5-0.4,0.8-0.7,0.9
		L170,137l-0.4,1.6c-0.9,3.5-2.8,5.8-5.5,7l-1.8,0.8v4.3c0,1.7,1,3.3,2.5,4.1l7.3,3.7C164.1,162.9,154.1,162.8,146.2,158.5z"/>
</g>
</svg>
